<svg aria-hidden="true" style="position: absolute; width: 0; height: 0; overflow: hidden;" version="1.1" xmlns="http://www.w3.org/2000/svg" xmlns:xlink="http://www.w3.org/1999/xlink">
<defs>
<symbol id="icon-instagram" viewBox="0 0 36 32">
<path d="M18.095 8.188c-4.938 0-8.921 3.485-8.921 7.806s3.983 7.806 8.921 7.806 8.921-3.485 8.921-7.806c0-4.321-3.983-7.806-8.921-7.806zM18.095 21.068c-3.191 0-5.8-2.276-5.8-5.075s2.601-5.075 5.8-5.075c3.199 0 5.8 2.276 5.8 5.075s-2.609 5.075-5.8 5.075zM29.461 7.868c0 1.012-0.932 1.821-2.081 1.821-1.157 0-2.081-0.815-2.081-1.821s0.932-1.821 2.081-1.821c1.149 0 2.081 0.815 2.081 1.821zM35.37 9.716c-0.132-2.439-0.769-4.599-2.811-6.379-2.034-1.78-4.503-2.337-7.29-2.459-2.873-0.143-11.483-0.143-14.356 0-2.78 0.116-5.248 0.673-7.29 2.452s-2.671 3.94-2.811 6.379c-0.163 2.514-0.163 10.048 0 12.561 0.132 2.439 0.769 4.599 2.811 6.379s4.503 2.337 7.29 2.459c2.873 0.143 11.483 0.143 14.356 0 2.787-0.115 5.256-0.673 7.29-2.459 2.034-1.78 2.671-3.94 2.811-6.379 0.163-2.514 0.163-10.041 0-12.554zM31.658 24.967c-0.606 1.331-1.778 2.357-3.307 2.894-2.29 0.795-7.725 0.611-10.256 0.611s-7.974 0.177-10.256-0.611c-1.522-0.53-2.694-1.556-3.307-2.894-0.908-2.004-0.699-6.759-0.699-8.974s-0.202-6.977 0.699-8.974c0.606-1.332 1.778-2.357 3.307-2.894 2.29-0.795 7.725-0.611 10.256-0.611s7.974-0.177 10.256 0.611c1.522 0.53 2.694 1.556 3.307 2.894 0.908 2.004 0.699 6.759 0.699 8.974s0.21 6.977-0.699 8.974z"></path>
</symbol>
<symbol id="icon-facebook" viewBox="0 0 33 32">
<path d="M32.64 16.097c0-8.893-7.161-16.097-16-16.097s-16 7.205-16 16.097c0 8.034 5.851 14.694 13.5 15.903v-11.249h-4.065v-4.653h4.065v-3.547c0-4.034 2.387-6.262 6.043-6.262 1.751 0 3.582 0.314 3.582 0.314v3.959h-2.018c-1.987 0-2.607 1.241-2.607 2.514v3.022h4.438l-0.71 4.653h-3.728v11.249c7.649-1.209 13.5-7.868 13.5-15.903z"></path>
</symbol>
<symbol id="icon-telegram" viewBox="0 0 33 32">
<path d="M30.752 0.002c-0.354 0.017-0.7 0.126-1.011 0.263-0.308 0.136-2.081 0.968-4.699 2.199s-6.022 2.834-9.396 4.423c-6.748 3.179-13.378 6.307-13.378 6.307l0.048-0.020c0 0-0.4 0.147-0.806 0.458-0.203 0.155-0.421 0.356-0.6 0.649s-0.309 0.707-0.26 1.146c0.173 1.54 1.625 1.977 1.625 1.977l0.006 0.003 6.479 2.438c0.165 0.606 1.965 7.211 2.361 8.61 0.219 0.773 0.423 1.22 0.637 1.524 0.107 0.152 0.219 0.27 0.343 0.356 0.049 0.034 0.101 0.060 0.152 0.083 0.001 0 0.002-0 0.003 0 0.006 0.003 0.012 0.003 0.018 0.006l-0.017-0.005c0.012 0.005 0.024 0.014 0.036 0.019 0.023 0.009 0.037 0.009 0.067 0.016 0.742 0.285 1.356-0.244 1.356-0.244l0.026-0.022 3.98-4.059 6.459 5.538 0.081 0.041c1.131 0.552 2.153 0.244 2.719-0.263s0.789-1.16 0.789-1.16l0.024-0.069 4.746-27.2c0.121-0.609 0.139-1.135 0.024-1.61s-0.393-0.888-0.742-1.117c-0.349-0.229-0.715-0.303-1.069-0.286zM30.79 1.629c0.144-0.007 0.251 0.011 0.284 0.033s0.049 0.019 0.081 0.153c0.032 0.134 0.050 0.416-0.038 0.858l-0.003 0.009-4.719 27.042c-0.011 0.027-0.11 0.277-0.334 0.478-0.229 0.205-0.484 0.365-1.16 0.053l-7.266-6.224-2.112-1.743 11.87-15.356c0.091-0.118 0.149-0.262 0.168-0.415s-0.004-0.309-0.065-0.449c-0.061-0.14-0.157-0.257-0.277-0.338s-0.259-0.122-0.399-0.118c-0.137 0.004-0.271 0.051-0.385 0.134l-17.177 12.591-6.489-2.443c0 0-0.644-0.394-0.675-0.669-0.002-0.015-0.009-0.001 0.024-0.056s0.118-0.147 0.223-0.228c0.211-0.162 0.452-0.259 0.452-0.259l0.024-0.009 0.024-0.011c0 0 6.631-3.128 13.378-6.307 3.374-1.589 6.777-3.191 9.394-4.422s4.508-2.116 4.668-2.187c0.182-0.080 0.364-0.113 0.508-0.12zM22.919 10.251l-9.006 11.65c-0.014 0.019-0.027 0.038-0.040 0.058-0.014 0.022-0.028 0.044-0.040 0.067-0.051 0.094-0.083 0.199-0.095 0.308-0 0.002-0 0.004 0 0.006l-1.173 5.799c-0.020-0.063-0.033-0.086-0.054-0.16v-0.002c-0.372-1.316-2.071-7.546-2.306-8.407l12.713-9.32zM14.933 23.805l1.618 1.335-2.377 2.423 0.759-3.757z"></path>
</symbol>
<symbol id="icon-whatsup" viewBox="0 0 32 32">
<path d="M16 0c-8.828 0-16 7.172-16 16 0 2.838 0.778 5.486 2.076 7.797l-2.050 7.319c-0.033 0.117-0.034 0.241-0.004 0.359s0.090 0.226 0.175 0.313 0.191 0.151 0.308 0.184c0.117 0.034 0.241 0.036 0.359 0.007l7.632-1.891c2.243 1.197 4.787 1.912 7.505 1.912 8.828 0 16-7.172 16-16s-7.172-16-16-16zM16 1.391c8.076 0 14.609 6.532 14.609 14.609s-6.532 14.609-14.609 14.609c-2.589 0-5.014-0.675-7.122-1.855-0.154-0.086-0.335-0.11-0.507-0.068l-6.683 1.656 1.792-6.394c0.026-0.090 0.033-0.185 0.021-0.278s-0.043-0.183-0.090-0.264c-1.281-2.172-2.019-4.7-2.019-7.406 0-8.076 6.532-14.609 14.609-14.609zM10.186 7.652c-0.446 0-1.083 0.166-1.606 0.73-0.314 0.339-1.624 1.614-1.624 3.857 0 2.338 1.622 4.356 1.818 4.616h0.001v0.001c-0.019-0.024 0.249 0.363 0.606 0.828s0.856 1.075 1.484 1.735c1.255 1.321 3.019 2.848 5.208 3.781 1.008 0.429 1.804 0.689 2.406 0.878 1.117 0.351 2.134 0.297 2.898 0.185 0.572-0.084 1.201-0.359 1.823-0.753s1.232-0.884 1.501-1.628c0.193-0.533 0.291-1.026 0.326-1.432 0.018-0.203 0.020-0.382 0.007-0.547s0.001-0.293-0.153-0.546c-0.324-0.532-0.691-0.546-1.073-0.735-0.213-0.105-0.818-0.401-1.425-0.69s-1.132-0.545-1.455-0.66c-0.204-0.074-0.454-0.179-0.814-0.139s-0.716 0.301-0.923 0.607c-0.196 0.291-0.986 1.223-1.227 1.497-0.003-0.002 0.018 0.008-0.077-0.039-0.298-0.147-0.662-0.273-1.201-0.557s-1.213-0.704-1.951-1.355v-0.001c-1.098-0.967-1.867-2.181-2.11-2.588 0.016-0.019-0.002 0.004 0.033-0.030l0.001-0.001c0.248-0.244 0.468-0.536 0.654-0.75 0.263-0.303 0.38-0.571 0.505-0.821 0.251-0.498 0.111-1.046-0.034-1.334v-0.001c0.010 0.020-0.078-0.175-0.174-0.401s-0.218-0.519-0.348-0.832c-0.26-0.625-0.551-1.326-0.724-1.736v-0.001c-0.204-0.484-0.479-0.832-0.84-1s-0.679-0.12-0.692-0.121h-0.001c-0.257-0.012-0.539-0.015-0.819-0.015zM10.186 9.043c0.268 0 0.533 0.003 0.754 0.014 0.228 0.011 0.214 0.012 0.17-0.008s0.016-0.027 0.145 0.28c0.169 0.402 0.462 1.105 0.723 1.732 0.131 0.313 0.253 0.608 0.351 0.838s0.151 0.36 0.212 0.482v0.001l0.001 0.001c0.060 0.119 0.055 0.043 0.034 0.084-0.147 0.291-0.167 0.363-0.315 0.534-0.226 0.26-0.457 0.551-0.579 0.671-0.107 0.105-0.3 0.268-0.42 0.588s-0.064 0.76 0.129 1.088c0.257 0.437 1.106 1.818 2.424 2.978 0.83 0.732 1.604 1.216 2.222 1.542s1.121 0.516 1.234 0.572c0.267 0.132 0.56 0.235 0.899 0.194s0.633-0.247 0.819-0.458l0.001-0.001c0.248-0.281 0.986-1.124 1.34-1.643 0.015 0.005 0.010 0.001 0.128 0.044v0.001h0.001c0.054 0.019 0.726 0.32 1.326 0.606s1.208 0.583 1.406 0.681c0.285 0.141 0.42 0.233 0.455 0.234 0.002 0.061 0.005 0.128-0.004 0.228-0.024 0.279-0.099 0.666-0.249 1.080-0.073 0.203-0.455 0.621-0.936 0.925s-1.067 0.52-1.284 0.552c-0.652 0.096-1.427 0.131-2.277-0.136-0.59-0.185-1.325-0.425-2.277-0.83-1.931-0.824-3.572-2.225-4.745-3.459-0.586-0.617-1.056-1.192-1.39-1.626s-0.479-0.66-0.601-0.819l-0.001-0.001c-0.216-0.285-1.535-2.121-1.535-3.774 0-1.75 0.813-2.436 1.253-2.91 0.231-0.249 0.483-0.285 0.586-0.285z"></path>
</symbol>
<symbol id="icon-check" viewBox="0 0 32 32">
<path d="M4.954 0.189c-2.605 0-4.75 2.143-4.75 4.746v22.147c0 2.603 2.145 4.746 4.75 4.746h22.167c2.605 0 4.75-2.143 4.75-4.746v-12.655h-3.167v12.655c0 0.877-0.705 1.582-1.583 1.582h-22.167c-0.878 0-1.583-0.705-1.583-1.582v-22.147c0-0.877 0.705-1.582 1.583-1.582h14.25v-3.164h-14.25zM29.452 3.217l-14.714 15.584-5.814-5.809-2.239 2.237 8.118 8.11 16.953-17.951-2.304-2.172z"></path>
</symbol>
<symbol id="icon-contact" viewBox="0 0 30 32">
<path d="M26.049 0.037h-21.98c-2.024 0-3.663 1.404-3.663 3.137v25.098c0 1.733 1.639 3.137 3.663 3.137h21.98c2.024 0 3.663-1.404 3.663-3.137v-25.098c0-1.733-1.639-3.137-3.663-3.137zM15.059 6.311c3.114 0 5.495 2.039 5.495 4.706s-2.381 4.706-5.495 4.706c-3.114 0-5.495-2.039-5.495-4.706s2.381-4.706 5.495-4.706zM24.217 25.135h-18.317c0 0 0-0.918 0-1.569 0-2.464 4.601-4.706 9.159-4.706s9.158 2.242 9.158 4.706c0 0.651 0 1.569 0 1.569z"></path>
</symbol>
<symbol id="icon-house" viewBox="0 0 39 32">
<path d="M19.735 0.304l-19.154 16.565h5.224v15.059h10.448v-10.039h6.965v10.039h10.448v-15.059h5.224l-19.154-16.565z"></path>
</symbol>
<symbol id="icon-burger" viewBox="0 0 51 32">
<path d="M1.767 0.281c-0.257-0.004-0.511 0.044-0.749 0.141s-0.455 0.241-0.637 0.424c-0.183 0.183-0.328 0.401-0.427 0.641s-0.15 0.498-0.15 0.758c0 0.26 0.051 0.518 0.15 0.758s0.244 0.458 0.427 0.641c0.183 0.183 0.399 0.327 0.637 0.424s0.493 0.145 0.749 0.141h46.459c0.257 0.004 0.511-0.044 0.749-0.141s0.455-0.241 0.637-0.424 0.328-0.401 0.427-0.641c0.099-0.24 0.15-0.498 0.15-0.758s-0.051-0.518-0.15-0.758c-0.099-0.24-0.244-0.458-0.427-0.641s-0.399-0.327-0.637-0.424c-0.238-0.097-0.493-0.145-0.749-0.141h-46.459zM1.767 14.035c-0.257-0.004-0.511 0.044-0.749 0.142s-0.455 0.241-0.637 0.424-0.328 0.401-0.427 0.641c-0.099 0.24-0.15 0.498-0.15 0.758s0.051 0.518 0.15 0.758c0.099 0.24 0.244 0.458 0.427 0.641s0.399 0.327 0.637 0.424c0.238 0.097 0.493 0.145 0.749 0.142h46.459c0.257 0.004 0.511-0.044 0.749-0.142s0.455-0.241 0.637-0.424 0.328-0.401 0.427-0.641c0.099-0.24 0.15-0.498 0.15-0.758s-0.051-0.518-0.15-0.758c-0.099-0.24-0.244-0.458-0.427-0.641s-0.399-0.327-0.637-0.424c-0.238-0.097-0.493-0.145-0.749-0.142h-46.459zM1.767 27.79c-0.257-0.004-0.511 0.044-0.749 0.142s-0.455 0.241-0.637 0.424-0.328 0.401-0.427 0.641c-0.099 0.24-0.15 0.498-0.15 0.758s0.051 0.518 0.15 0.758c0.099 0.24 0.244 0.458 0.427 0.641s0.399 0.327 0.637 0.424c0.238 0.097 0.493 0.145 0.749 0.142h46.459c0.257 0.004 0.511-0.044 0.749-0.142s0.455-0.241 0.637-0.424 0.328-0.401 0.427-0.641c0.099-0.24 0.15-0.498 0.15-0.758s-0.051-0.518-0.15-0.758c-0.099-0.24-0.244-0.458-0.427-0.641s-0.399-0.327-0.637-0.424c-0.238-0.097-0.493-0.145-0.749-0.142h-46.459z"></path>
</symbol>
<symbol id="icon-ellipse" viewBox="0 0 32 32">
<path stroke-linejoin="miter" stroke-linecap="butt" stroke-miterlimit="4" stroke-width="1.7778" d="M30.519 16c0 8.018-6.5 14.519-14.519 14.519s-14.519-6.5-14.519-14.519c0-8.018 6.5-14.519 14.519-14.519s14.519 6.5 14.519 14.519z"></path>
</symbol>
<symbol id="icon-check-circle" viewBox="0 0 31 32">
<path d="M15.461 0.876c-8.409 0-15.239 6.892-15.239 15.375s6.831 15.375 15.239 15.375 15.24-6.892 15.24-15.375c0-8.484-6.831-15.375-15.239-15.375zM15.461 2.213c7.692 0 13.914 6.277 13.914 14.038s-6.222 14.038-13.914 14.038c-7.692 0-13.914-6.278-13.914-14.038s6.222-14.038 13.914-14.038zM22.079 9.559c-0.108 0.002-0.213 0.031-0.308 0.083s-0.174 0.127-0.233 0.218l-6.759 10.052-4.831-4.523c-0.063-0.062-0.138-0.11-0.221-0.142s-0.17-0.047-0.258-0.045-0.175 0.023-0.255 0.059c-0.080 0.037-0.152 0.089-0.212 0.154s-0.106 0.142-0.136 0.225c-0.030 0.084-0.044 0.172-0.039 0.261s0.026 0.176 0.064 0.256c0.038 0.080 0.091 0.152 0.157 0.211l5.961 5.58 7.628-11.341c0.070-0.101 0.111-0.22 0.118-0.343s-0.019-0.246-0.077-0.355-0.144-0.199-0.249-0.262c-0.105-0.062-0.226-0.094-0.348-0.092z"></path>
</symbol>
<symbol id="icon-phone" viewBox="0 0 32 32">
<path d="M7.877 0.485c-4.070 0-7.385 3.315-7.385 7.385v16.246c0 4.070 3.315 7.385 7.385 7.385h16.246c4.070 0 7.385-3.315 7.385-7.385v-16.246c0-4.070-3.315-7.385-7.385-7.385h-16.246zM7.877 1.962h16.246c3.272 0 5.908 2.636 5.908 5.908v16.246c0 3.272-2.636 5.908-5.908 5.908h-16.246c-3.272 0-5.908-2.636-5.908-5.908v-16.246c0-3.272 2.636-5.908 5.908-5.908zM10.867 5.687c-1.51-0.065-2.657 0.509-3.378 1.199-0.361 0.345-0.621 0.714-0.799 1.059s-0.291 0.629-0.291 0.998c0-0.033-0.008 0.14-0.013 0.34s-0.004 0.471 0.014 0.798c0.037 0.653 0.148 1.537 0.441 2.585 0.587 2.095 1.91 4.844 4.78 7.713s5.618 4.192 7.714 4.78c1.048 0.294 1.931 0.404 2.585 0.441 0.327 0.018 0.596 0.019 0.796 0.014s0.375-0.013 0.342-0.013c0.369 0 0.654-0.113 0.998-0.291s0.714-0.439 1.059-0.799c0.69-0.721 1.264-1.867 1.199-3.378-0.031-0.72-0.431-1.358-1.021-1.736-0.456-0.292-1.164-0.746-2.088-1.337-1.072-0.685-2.444-0.734-3.562-0.121l0.064-0.032-0.87 0.374-0.063 0.045c-0.211 0.148-0.473 0.176-0.711 0.076-0.666-0.279-1.704-0.826-2.67-1.791s-1.513-2.003-1.791-2.67c-0.099-0.238-0.072-0.5 0.076-0.711l0.045-0.063 0.374-0.87-0.032 0.063c0.613-1.118 0.565-2.49-0.121-3.563-0.591-0.924-1.045-1.632-1.337-2.088-0.378-0.59-1.016-0.99-1.736-1.021zM10.803 7.163c0.207 0.009 0.421 0.13 0.557 0.342 0.293 0.457 0.746 1.165 1.337 2.088 0.392 0.613 0.419 1.418 0.069 2.057l-0.017 0.032-0.356 0.832 0.074-0.134c-0.436 0.622-0.524 1.429-0.231 2.13 0.333 0.796 0.969 2.003 2.11 3.144s2.348 1.777 3.144 2.11c0.702 0.293 1.509 0.206 2.13-0.231l-0.134 0.074 0.832-0.356 0.032-0.017c0.639-0.35 1.444-0.321 2.057 0.071v-0.001c0.923 0.591 1.632 1.044 2.088 1.337 0.212 0.136 0.333 0.35 0.342 0.557 0.049 1.121-0.341 1.824-0.79 2.293-0.225 0.235-0.468 0.405-0.669 0.509s-0.393 0.126-0.32 0.126c-0.136 0-0.207 0.009-0.377 0.013s-0.397 0.004-0.678-0.012c-0.561-0.032-1.337-0.128-2.27-0.389-1.867-0.523-4.37-1.704-7.067-4.402s-3.879-5.201-4.402-7.067c-0.262-0.933-0.358-1.709-0.389-2.27-0.016-0.281-0.016-0.508-0.012-0.678s0.013-0.241 0.013-0.376c0 0.073 0.022-0.119 0.125-0.32s0.274-0.445 0.509-0.669c0.47-0.449 1.172-0.839 2.293-0.79z"></path>
</symbol>
<symbol id="icon-map" viewBox="0 0 31 32">
<path d="M22.769 0.041c-2.824 0-5.307 1.525-6.731 3.815h-13.577c-1.36 0-2.462 1.138-2.462 2.544v22.892c0 0.226 0.038 0.441 0.091 0.651l15.983-16.516c0.378 0.806 0.801 1.572 1.236 2.32l-2.031 2.099 11.707 12.097c0.053-0.21 0.091-0.424 0.091-0.651v-11.535c0.185-0.321 0.372-0.644 0.562-0.966 1.467-2.486 3.13-5.303 3.13-8.483 0-4.558-3.589-8.267-8-8.267zM22.769 2.585c3.058 0 5.538 2.563 5.538 5.723 0 1.608-0.621 3.192-1.416 4.735-0.336 0.651-0.693 1.298-1.065 1.932-0.028 0.049-0.056 0.098-0.084 0.147-0.027 0.046-0.052 0.090-0.079 0.137-0.321 0.545-0.635 1.083-0.933 1.612-0.267 0.476-0.526 0.951-0.743 1.413-0.143 0.304-0.269 0.604-0.38 0.902-0.029 0.078-0.053 0.156-0.079 0.234-0.080 0.234-0.146 0.466-0.2 0.695-0.021 0.089-0.041 0.178-0.058 0.266-0.056 0.299-0.096 0.596-0.096 0.887 0 0.215-0.2 0.375-0.406 0.375s-0.377-0.189-0.377-0.402c-0-0.262-0.030-0.531-0.077-0.8-0.016-0.090-0.042-0.182-0.063-0.273-0.037-0.167-0.078-0.333-0.13-0.502-0.039-0.126-0.082-0.253-0.127-0.38-0.057-0.157-0.119-0.313-0.185-0.472-0.052-0.124-0.104-0.25-0.161-0.375-0.044-0.096-0.095-0.194-0.142-0.291-0.159-0.327-0.342-0.664-0.526-0.999-0.19-0.343-0.383-0.69-0.589-1.041-0.337-0.573-0.676-1.157-1.017-1.746-0.541-0.935-1.054-1.885-1.442-2.854-0.002-0.004-0.003-0.008-0.005-0.012-0.104-0.259-0.197-0.519-0.281-0.78-0-0.002 0-0.003 0-0.005-0.081-0.252-0.154-0.504-0.214-0.758-0.024-0.105-0.040-0.21-0.060-0.315-0.032-0.165-0.066-0.331-0.087-0.497-0.034-0.276-0.055-0.554-0.055-0.832 0-0.354 0.041-0.697 0.101-1.033 0.011-0.063 0.020-0.127 0.034-0.189 0.061-0.289 0.148-0.568 0.25-0.84 0.044-0.115 0.091-0.229 0.142-0.34 0.087-0.194 0.189-0.38 0.296-0.561 0.11-0.183 0.229-0.36 0.358-0.529 0.043-0.057 0.087-0.111 0.132-0.166 0.23-0.28 0.483-0.539 0.76-0.77 0.008-0.007 0.016-0.015 0.024-0.022 0.948-0.784 2.134-1.272 3.442-1.272zM7.486 6.4c1.302 0 2.487 0.513 3.382 1.354l-1.413 1.461c-0.53-0.469-1.218-0.755-1.969-0.755-1.674 0-3.029 1.4-3.029 3.13 0 1.728 1.355 3.132 3.029 3.132 1.404 0 2.379-0.86 2.736-2.062h-2.736v-1.985l4.736 0.007c0.411 2.023-0.521 6.096-4.736 6.096-2.775 0-5.024-2.322-5.024-5.189s2.249-5.189 5.024-5.189zM22.769 6.4c-0.49 0-0.959 0.201-1.305 0.559s-0.541 0.843-0.541 1.349c0 0.506 0.194 0.991 0.541 1.349s0.816 0.559 1.305 0.559c0.49 0 0.959-0.201 1.305-0.559s0.541-0.843 0.541-1.349c0-0.506-0.194-0.991-0.541-1.349s-0.816-0.559-1.305-0.559zM13.538 19.645l-11.707 12.097c0.203 0.055 0.411 0.094 0.63 0.094h22.154c0.219 0 0.427-0.040 0.63-0.094l-11.707-12.097z"></path>
</symbol>
<symbol id="icon-mail" viewBox="0 0 32 32">
<path d="M7.877 0.492c-4.070 0-7.385 3.315-7.385 7.385v16.246c0 4.070 3.315 7.385 7.385 7.385h16.246c4.070 0 7.385-3.315 7.385-7.385v-16.246c0-4.070-3.315-7.385-7.385-7.385h-16.246zM7.877 1.969h16.246c3.272 0 5.908 2.636 5.908 5.908v16.246c0 3.272-2.636 5.908-5.908 5.908h-16.246c-3.272 0-5.908-2.636-5.908-5.908v-16.246c0-3.272 2.636-5.908 5.908-5.908zM7.138 8.615c-1.215 0-2.215 1.001-2.215 2.215v10.338c0 1.215 1.001 2.215 2.215 2.215h17.723c1.215 0 2.215-1.001 2.215-2.215v-10.338c0-1.215-1.001-2.215-2.215-2.215h-17.723zM7.444 10.092h17.11l-6.577 6.567c-1.102 1.101-2.866 1.101-3.968-0.001l-6.565-6.565zM25.6 11.135v9.73l-4.872-4.865 4.872-4.865zM6.4 11.136l4.863 4.863-4.863 4.863v-9.727zM19.684 17.043l4.872 4.865h-17.112l4.863-4.864 0.658 0.658c1.666 1.666 4.388 1.667 6.055 0.003l0.663-0.662z"></path>
</symbol>
<symbol id="icon-clock" viewBox="0 0 32 32">
<path d="M16 0c-8.836 0-16 7.164-16 16s7.164 16 16 16c8.836 0 16-7.164 16-16s-7.164-16-16-16zM17.333 17.333h-10.673c-0.733 0-1.327-0.593-1.327-1.327v-0.015c0-0.732 0.593-1.325 1.327-1.325h8.007v-10.673c0-0.733 0.593-1.327 1.327-1.327h0.015c0.732 0 1.325 0.593 1.325 1.327v13.34z"></path>
</symbol>
<symbol id="icon-trustpilot" viewBox="0 0 107 32">
<path d="M28.036 11.571h10.761v1.878h-4.237v10.587h-2.322v-10.587h-4.219l0.018-1.878zM38.336 15.012h1.986v1.745h0.035c0.071-0.249 0.195-0.482 0.372-0.715s0.39-0.449 0.656-0.632c0.248-0.199 0.532-0.349 0.851-0.465 0.301-0.116 0.62-0.183 0.939-0.183 0.249 0 0.425 0.017 0.514 0.017 0.088 0.017 0.195 0.033 0.283 0.033v1.911c-0.142-0.033-0.301-0.050-0.461-0.066s-0.301-0.033-0.461-0.033c-0.355 0-0.691 0.066-1.010 0.199s-0.586 0.332-0.834 0.582c-0.231 0.266-0.425 0.582-0.567 0.964s-0.213 0.831-0.213 1.33v4.288h-2.127l0.035-8.975zM53.742 24.036h-2.109v-1.263h-0.036c-0.266 0.465-0.656 0.814-1.17 1.097s-1.046 0.415-1.578 0.415c-1.259 0-2.18-0.283-2.748-0.881-0.567-0.582-0.851-1.479-0.851-2.659v-5.734h2.127v5.535c0 0.798 0.16 1.363 0.497 1.679 0.319 0.332 0.78 0.499 1.365 0.499 0.443 0 0.816-0.066 1.117-0.199s0.549-0.299 0.727-0.515c0.195-0.216 0.319-0.482 0.407-0.781s0.124-0.632 0.124-0.981v-5.235h2.127v9.025zM57.341 21.144c0.071 0.582 0.301 0.981 0.709 1.23 0.408 0.233 0.904 0.349 1.472 0.349 0.195 0 0.425-0.017 0.673-0.050s0.497-0.083 0.709-0.166c0.23-0.083 0.408-0.199 0.549-0.366s0.213-0.366 0.195-0.615c-0.018-0.249-0.106-0.465-0.302-0.632s-0.425-0.282-0.709-0.399c-0.284-0.1-0.621-0.183-0.993-0.249s-0.745-0.15-1.134-0.233c-0.39-0.083-0.78-0.183-1.153-0.299s-0.691-0.266-0.993-0.482c-0.284-0.199-0.532-0.449-0.691-0.765-0.178-0.316-0.266-0.681-0.266-1.147 0-0.499 0.124-0.898 0.39-1.23 0.249-0.332 0.585-0.598 0.975-0.798s0.833-0.349 1.312-0.432c0.479-0.083 0.94-0.116 1.365-0.116 0.497 0 0.975 0.050 1.418 0.15s0.869 0.249 1.223 0.482c0.372 0.216 0.674 0.515 0.904 0.864 0.249 0.349 0.39 0.781 0.461 1.28h-2.216c-0.106-0.482-0.336-0.798-0.691-0.964-0.372-0.166-0.78-0.249-1.258-0.249-0.142 0-0.337 0.017-0.532 0.033-0.213 0.033-0.39 0.066-0.585 0.133-0.177 0.067-0.337 0.166-0.461 0.283s-0.195 0.283-0.195 0.482c0 0.249 0.088 0.432 0.266 0.582s0.408 0.266 0.709 0.382c0.284 0.1 0.62 0.183 0.993 0.249s0.763 0.15 1.153 0.233c0.39 0.083 0.762 0.183 1.134 0.299s0.709 0.266 0.993 0.482c0.283 0.199 0.532 0.449 0.709 0.748s0.266 0.681 0.266 1.114c0 0.532-0.124 0.981-0.39 1.363-0.266 0.366-0.603 0.681-1.011 0.914s-0.887 0.399-1.383 0.515c-0.515 0.1-1.011 0.166-1.507 0.166-0.603 0-1.17-0.066-1.684-0.199s-0.975-0.332-1.348-0.582c-0.372-0.266-0.674-0.582-0.887-0.981-0.213-0.382-0.336-0.848-0.354-1.396h2.145v0.017h0.018zM64.343 15.012h1.613v-2.726h2.127v2.709h1.915v1.479h-1.915v4.82c0 0.216 0.018 0.382 0.035 0.548 0.018 0.15 0.071 0.283 0.124 0.382 0.071 0.1 0.177 0.183 0.301 0.233 0.142 0.050 0.319 0.083 0.568 0.083 0.142 0 0.301 0 0.443-0.017s0.302-0.033 0.443-0.066v1.546c-0.231 0.033-0.461 0.050-0.691 0.066-0.231 0.033-0.443 0.033-0.691 0.033-0.567 0-1.010-0.050-1.348-0.15s-0.602-0.249-0.798-0.432c-0.195-0.199-0.319-0.432-0.39-0.715s-0.107-0.632-0.124-0.997v-5.319h-1.613v-1.479zM71.488 15.012h2.003v1.23h0.036c0.301-0.532 0.709-0.898 1.241-1.13s1.099-0.349 1.737-0.349c0.762 0 1.418 0.116 1.986 0.382 0.567 0.249 1.028 0.582 1.4 1.030 0.372 0.432 0.656 0.947 0.834 1.529s0.283 1.213 0.283 1.861c0 0.615-0.089 1.197-0.248 1.762-0.177 0.565-0.425 1.080-0.763 1.512s-0.762 0.781-1.294 1.047c-0.532 0.266-1.135 0.399-1.844 0.399-0.301 0-0.62-0.033-0.922-0.083s-0.602-0.133-0.886-0.249c-0.283-0.116-0.55-0.266-0.78-0.449-0.249-0.183-0.443-0.399-0.603-0.632h-0.035v4.504h-2.127v-12.366h-0.018zM78.916 19.532c0-0.399-0.053-0.798-0.177-1.18-0.106-0.382-0.284-0.715-0.514-1.014s-0.515-0.532-0.834-0.715c-0.336-0.183-0.727-0.266-1.152-0.266-0.887 0-1.56 0.283-2.021 0.864-0.443 0.582-0.674 1.363-0.674 2.327 0 0.465 0.053 0.881 0.177 1.263s0.284 0.715 0.532 0.997c0.231 0.283 0.515 0.499 0.851 0.665s0.709 0.249 1.153 0.249c0.496 0 0.886-0.1 1.223-0.283s0.602-0.432 0.833-0.715c0.213-0.299 0.372-0.632 0.461-1.014 0.089-0.399 0.142-0.781 0.142-1.18zM82.656 11.571h2.128v1.878h-2.128v-1.878zM82.656 15.012h2.128v9.025h-2.128v-9.025zM86.681 11.571h2.127v12.465h-2.127v-12.465zM95.297 24.286c-0.762 0-1.453-0.116-2.056-0.366s-1.099-0.565-1.524-0.981c-0.408-0.416-0.727-0.931-0.94-1.512s-0.337-1.23-0.337-1.911c0-0.681 0.106-1.313 0.337-1.895 0.213-0.582 0.532-1.080 0.94-1.513 0.407-0.415 0.921-0.748 1.524-0.98s1.294-0.366 2.056-0.366c0.763 0 1.454 0.116 2.057 0.366 0.602 0.233 1.099 0.565 1.524 0.98 0.407 0.416 0.727 0.931 0.939 1.513s0.337 1.213 0.337 1.895c0 0.698-0.106 1.33-0.337 1.911s-0.532 1.080-0.939 1.512c-0.408 0.415-0.922 0.748-1.524 0.981s-1.276 0.366-2.057 0.366zM95.297 22.707c0.461 0 0.887-0.1 1.223-0.283 0.355-0.183 0.621-0.432 0.851-0.731s0.39-0.648 0.497-1.014c0.106-0.382 0.16-0.764 0.16-1.163 0-0.382-0.053-0.765-0.16-1.147s-0.266-0.715-0.497-1.014c-0.23-0.299-0.514-0.532-0.851-0.715-0.354-0.183-0.762-0.283-1.223-0.283s-0.886 0.1-1.223 0.283c-0.354 0.183-0.62 0.432-0.851 0.715-0.23 0.299-0.39 0.631-0.497 1.014s-0.159 0.765-0.159 1.147c0 0.399 0.053 0.781 0.159 1.163s0.266 0.715 0.497 1.014c0.231 0.299 0.515 0.548 0.851 0.731 0.355 0.199 0.762 0.283 1.223 0.283zM100.793 15.012h1.613v-2.726h2.127v2.709h1.915v1.479h-1.915v4.82c0 0.216 0.018 0.382 0.035 0.548 0.018 0.15 0.071 0.283 0.124 0.382 0.071 0.1 0.177 0.183 0.301 0.233 0.142 0.050 0.319 0.083 0.568 0.083 0.142 0 0.301 0 0.443-0.017s0.302-0.033 0.443-0.066v1.546c-0.231 0.033-0.461 0.050-0.691 0.066-0.231 0.033-0.443 0.033-0.691 0.033-0.567 0-1.010-0.050-1.348-0.15s-0.602-0.249-0.798-0.432c-0.195-0.199-0.319-0.432-0.39-0.715s-0.106-0.632-0.124-0.997v-5.319h-1.613v-1.479z"></path>
<path d="M28.753 11.571h-9.733l-2.996-8.676-3.014 8.676-9.733-0.017 7.871 5.368-3.014 8.676 7.871-5.368 7.871 5.368-2.996-8.676 7.871-5.352z"></path>
<path d="M21.556 18.884l-0.674-1.961-4.858 3.307 5.531-1.346z"></path>
</symbol>
<symbol id="icon-google" viewBox="0 0 32 32">
<path d="M16.005 0c-8.839 0-16.005 7.164-16.005 16s7.167 16 16.005 16c13.347 0 16.354-12.391 15.102-18.667h-15.107v5.333h10.318c-1.186 4.598-5.35 8-10.318 8-5.891 0-10.667-4.776-10.667-10.667s4.776-10.667 10.667-10.667c2.679 0 5.119 0.994 6.992 2.625l3.789-3.786c-2.845-2.592-6.625-4.172-10.776-4.172z"></path>
</symbol>
<symbol id="icon-burger" viewBox="0 0 32 32">
<path d="M2 6h28v6h-28zM2 14h28v6h-28zM2 22h28v6h-28z"></path>
</symbol>
<symbol id="icon-header-close" viewBox="0 0 32 32">
<path d="M31.708 25.708c-0-0-0-0-0-0l-9.708-9.708 9.708-9.708c0-0 0-0 0-0 0.105-0.105 0.18-0.227 0.229-0.357 0.133-0.356 0.057-0.771-0.229-1.057l-4.586-4.586c-0.286-0.286-0.702-0.361-1.057-0.229-0.13 0.048-0.252 0.124-0.357 0.228 0 0-0 0-0 0l-9.708 9.708-9.708-9.708c-0-0-0-0-0-0-0.105-0.104-0.227-0.18-0.357-0.228-0.356-0.133-0.771-0.057-1.057 0.229l-4.586 4.586c-0.286 0.286-0.361 0.702-0.229 1.057 0.049 0.13 0.124 0.252 0.229 0.357 0 0 0 0 0 0l9.708 9.708-9.708 9.708c-0 0-0 0-0 0-0.104 0.105-0.18 0.227-0.229 0.357-0.133 0.355-0.057 0.771 0.229 1.057l4.586 4.586c0.286 0.286 0.702 0.361 1.057 0.229 0.13-0.049 0.252-0.124 0.357-0.229 0-0 0-0 0-0l9.708-9.708 9.708 9.708c0 0 0 0 0 0 0.105 0.105 0.227 0.18 0.357 0.229 0.356 0.133 0.771 0.057 1.057-0.229l4.586-4.586c0.286-0.286 0.362-0.702 0.229-1.057-0.049-0.13-0.124-0.252-0.229-0.357z"></path>
</symbol>   
</defs>
</svg>
