<svg aria-hidden="true" style="position: absolute; width: 0; height: 0; overflow: hidden;" version="1.1" xmlns="http://www.w3.org/2000/svg" xmlns:xlink="http://www.w3.org/1999/xlink">
<defs>
<symbol id="icon-trustpilot" viewBox="0 0 107 32">
<path d="M28.036 11.571h10.761v1.878h-4.237v10.587h-2.322v-10.587h-4.219l0.018-1.878zM38.336 15.012h1.986v1.745h0.035c0.071-0.249 0.195-0.482 0.372-0.715s0.39-0.449 0.656-0.632c0.248-0.199 0.532-0.349 0.851-0.465 0.301-0.116 0.62-0.183 0.939-0.183 0.249 0 0.425 0.017 0.514 0.017 0.088 0.017 0.195 0.033 0.283 0.033v1.911c-0.142-0.033-0.301-0.050-0.461-0.066s-0.301-0.033-0.461-0.033c-0.355 0-0.691 0.066-1.010 0.199s-0.586 0.332-0.834 0.582c-0.231 0.266-0.425 0.582-0.567 0.964s-0.213 0.831-0.213 1.33v4.288h-2.127l0.035-8.975zM53.742 24.036h-2.109v-1.263h-0.036c-0.266 0.465-0.656 0.814-1.17 1.097s-1.046 0.415-1.578 0.415c-1.259 0-2.18-0.283-2.748-0.881-0.567-0.582-0.851-1.479-0.851-2.659v-5.734h2.127v5.535c0 0.798 0.16 1.363 0.497 1.679 0.319 0.332 0.78 0.499 1.365 0.499 0.443 0 0.816-0.066 1.117-0.199s0.549-0.299 0.727-0.515c0.195-0.216 0.319-0.482 0.407-0.781s0.124-0.632 0.124-0.981v-5.235h2.127v9.025zM57.341 21.144c0.071 0.582 0.301 0.981 0.709 1.23 0.408 0.233 0.904 0.349 1.472 0.349 0.195 0 0.425-0.017 0.673-0.050s0.497-0.083 0.709-0.166c0.23-0.083 0.408-0.199 0.549-0.366s0.213-0.366 0.195-0.615c-0.018-0.249-0.106-0.465-0.302-0.632s-0.425-0.282-0.709-0.399c-0.284-0.1-0.621-0.183-0.993-0.249s-0.745-0.15-1.134-0.233c-0.39-0.083-0.78-0.183-1.153-0.299s-0.691-0.266-0.993-0.482c-0.284-0.199-0.532-0.449-0.691-0.765-0.178-0.316-0.266-0.681-0.266-1.147 0-0.499 0.124-0.898 0.39-1.23 0.249-0.332 0.585-0.598 0.975-0.798s0.833-0.349 1.312-0.432c0.479-0.083 0.94-0.116 1.365-0.116 0.497 0 0.975 0.050 1.418 0.15s0.869 0.249 1.223 0.482c0.372 0.216 0.674 0.515 0.904 0.864 0.249 0.349 0.39 0.781 0.461 1.28h-2.216c-0.106-0.482-0.336-0.798-0.691-0.964-0.372-0.166-0.78-0.249-1.258-0.249-0.142 0-0.337 0.017-0.532 0.033-0.213 0.033-0.39 0.066-0.585 0.133-0.177 0.067-0.337 0.166-0.461 0.283s-0.195 0.283-0.195 0.482c0 0.249 0.088 0.432 0.266 0.582s0.408 0.266 0.709 0.382c0.284 0.1 0.62 0.183 0.993 0.249s0.763 0.15 1.153 0.233c0.39 0.083 0.762 0.183 1.134 0.299s0.709 0.266 0.993 0.482c0.283 0.199 0.532 0.449 0.709 0.748s0.266 0.681 0.266 1.114c0 0.532-0.124 0.981-0.39 1.363-0.266 0.366-0.603 0.681-1.011 0.914s-0.887 0.399-1.383 0.515c-0.515 0.1-1.011 0.166-1.507 0.166-0.603 0-1.17-0.066-1.684-0.199s-0.975-0.332-1.348-0.582c-0.372-0.266-0.674-0.582-0.887-0.981-0.213-0.382-0.336-0.848-0.354-1.396h2.145v0.017h0.018zM64.343 15.012h1.613v-2.726h2.127v2.709h1.915v1.479h-1.915v4.82c0 0.216 0.018 0.382 0.035 0.548 0.018 0.15 0.071 0.283 0.124 0.382 0.071 0.1 0.177 0.183 0.301 0.233 0.142 0.050 0.319 0.083 0.568 0.083 0.142 0 0.301 0 0.443-0.017s0.302-0.033 0.443-0.066v1.546c-0.231 0.033-0.461 0.050-0.691 0.066-0.231 0.033-0.443 0.033-0.691 0.033-0.567 0-1.010-0.050-1.348-0.15s-0.602-0.249-0.798-0.432c-0.195-0.199-0.319-0.432-0.39-0.715s-0.107-0.632-0.124-0.997v-5.319h-1.613v-1.479zM71.488 15.012h2.003v1.23h0.036c0.301-0.532 0.709-0.898 1.241-1.13s1.099-0.349 1.737-0.349c0.762 0 1.418 0.116 1.986 0.382 0.567 0.249 1.028 0.582 1.4 1.030 0.372 0.432 0.656 0.947 0.834 1.529s0.283 1.213 0.283 1.861c0 0.615-0.089 1.197-0.248 1.762-0.177 0.565-0.425 1.080-0.763 1.512s-0.762 0.781-1.294 1.047c-0.532 0.266-1.135 0.399-1.844 0.399-0.301 0-0.62-0.033-0.922-0.083s-0.602-0.133-0.886-0.249c-0.283-0.116-0.55-0.266-0.78-0.449-0.249-0.183-0.443-0.399-0.603-0.632h-0.035v4.504h-2.127v-12.366h-0.018zM78.916 19.532c0-0.399-0.053-0.798-0.177-1.18-0.106-0.382-0.284-0.715-0.514-1.014s-0.515-0.532-0.834-0.715c-0.336-0.183-0.727-0.266-1.152-0.266-0.887 0-1.56 0.283-2.021 0.864-0.443 0.582-0.674 1.363-0.674 2.327 0 0.465 0.053 0.881 0.177 1.263s0.284 0.715 0.532 0.997c0.231 0.283 0.515 0.499 0.851 0.665s0.709 0.249 1.153 0.249c0.496 0 0.886-0.1 1.223-0.283s0.602-0.432 0.833-0.715c0.213-0.299 0.372-0.632 0.461-1.014 0.089-0.399 0.142-0.781 0.142-1.18zM82.656 11.571h2.128v1.878h-2.128v-1.878zM82.656 15.012h2.128v9.025h-2.128v-9.025zM86.681 11.571h2.127v12.465h-2.127v-12.465zM95.297 24.286c-0.762 0-1.453-0.116-2.056-0.366s-1.099-0.565-1.524-0.981c-0.408-0.416-0.727-0.931-0.94-1.512s-0.337-1.23-0.337-1.911c0-0.681 0.106-1.313 0.337-1.895 0.213-0.582 0.532-1.080 0.94-1.513 0.407-0.415 0.921-0.748 1.524-0.98s1.294-0.366 2.056-0.366c0.763 0 1.454 0.116 2.057 0.366 0.602 0.233 1.099 0.565 1.524 0.98 0.407 0.416 0.727 0.931 0.939 1.513s0.337 1.213 0.337 1.895c0 0.698-0.106 1.33-0.337 1.911s-0.532 1.080-0.939 1.512c-0.408 0.415-0.922 0.748-1.524 0.981s-1.276 0.366-2.057 0.366zM95.297 22.707c0.461 0 0.887-0.1 1.223-0.283 0.355-0.183 0.621-0.432 0.851-0.731s0.39-0.648 0.497-1.014c0.106-0.382 0.16-0.764 0.16-1.163 0-0.382-0.053-0.765-0.16-1.147s-0.266-0.715-0.497-1.014c-0.23-0.299-0.514-0.532-0.851-0.715-0.354-0.183-0.762-0.283-1.223-0.283s-0.886 0.1-1.223 0.283c-0.354 0.183-0.62 0.432-0.851 0.715-0.23 0.299-0.39 0.631-0.497 1.014s-0.159 0.765-0.159 1.147c0 0.399 0.053 0.781 0.159 1.163s0.266 0.715 0.497 1.014c0.231 0.299 0.515 0.548 0.851 0.731 0.355 0.199 0.762 0.283 1.223 0.283zM100.793 15.012h1.613v-2.726h2.127v2.709h1.915v1.479h-1.915v4.82c0 0.216 0.018 0.382 0.035 0.548 0.018 0.15 0.071 0.283 0.124 0.382 0.071 0.1 0.177 0.183 0.301 0.233 0.142 0.050 0.319 0.083 0.568 0.083 0.142 0 0.301 0 0.443-0.017s0.302-0.033 0.443-0.066v1.546c-0.231 0.033-0.461 0.050-0.691 0.066-0.231 0.033-0.443 0.033-0.691 0.033-0.567 0-1.010-0.050-1.348-0.15s-0.602-0.249-0.798-0.432c-0.195-0.199-0.319-0.432-0.39-0.715s-0.106-0.632-0.124-0.997v-5.319h-1.613v-1.479z"></path>
<path d="M28.753 11.571h-9.733l-2.996-8.676-3.014 8.676-9.733-0.017 7.871 5.368-3.014 8.676 7.871-5.368 7.871 5.368-2.996-8.676 7.871-5.352z"></path>
<path d="M21.556 18.884l-0.674-1.961-4.858 3.307 5.531-1.346z"></path>
</symbol>
<symbol id="icon-google" viewBox="0 0 32 32">
<path d="M16.005 0c-8.839 0-16.005 7.164-16.005 16s7.167 16 16.005 16c13.347 0 16.354-12.391 15.102-18.667h-15.107v5.333h10.318c-1.186 4.598-5.35 8-10.318 8-5.891 0-10.667-4.776-10.667-10.667s4.776-10.667 10.667-10.667c2.679 0 5.119 0.994 6.992 2.625l3.789-3.786c-2.845-2.592-6.625-4.172-10.776-4.172z"></path>
</symbol>
</defs>
</svg>
